<?xml version="1.0" standalone="no"?>
<!DOCTYPE svg PUBLIC "-//W3C//DTD SVG 20010904//EN"
 "http://www.w3.org/TR/2001/REC-SVG-20010904/DTD/svg10.dtd">
<svg version="1.0" xmlns="http://www.w3.org/2000/svg"
 width="499.000000pt" height="218.000000pt" viewBox="0 0 499.000000 218.000000"
 preserveAspectRatio="xMidYMid meet">

<g transform="translate(0.000000,218.000000) scale(0.100000,-0.100000)"
fill="#000000" stroke="none">
<path d="M1295 360 c-18 -20 -18 -21 1 -40 25 -26 84 -44 84 -26 0 6 -16 18
-36 25 -30 11 -35 17 -31 37 5 29 5 29 -18 4z"/>
<path d="M1497 350 c8 -29 25 -37 21 -9 -1 12 -8 24 -15 26 -7 3 -9 -3 -6 -17z"/>
<path d="M1272 279 c8 -23 52 -48 97 -55 35 -6 43 -4 39 7 -2 7 -24 17 -48 21
-23 4 -54 15 -67 24 -18 11 -24 12 -21 3z"/>
<path d="M1460 240 c0 -5 5 -10 10 -10 6 0 10 5 10 10 0 6 -4 10 -10 10 -5 0
-10 -4 -10 -10z"/>
</g>
</svg>
